<?xml version="1.0" encoding="UTF-8"?>
<svg version="1.1" xmlns="http://www.w3.org/2000/svg" width="2769" height="3589">
<path d="M0 0 C16.74262965 8.4156075 31.7273214 21.22234285 45.8984375 33.3671875 C48.63293092 35.70503651 51.4331302 37.94932248 54.25 40.1875 C67.51291943 51.04757954 79.5015774 63.40681968 91.625 75.5 C92.23568329 76.10800446 92.84636658 76.71600891 93.47555542 77.34243774 C99.87306665 83.71865297 106.15696911 90.10451073 112 97 C113.45445517 98.60768373 114.91220895 100.21239715 116.375 101.8125 C120.21928245 106.07745308 123.89526905 110.4486085 127.50390625 114.9140625 C129.31198156 117.14939817 131.13112763 119.37188205 132.96484375 121.5859375 C141.3743434 131.77464349 149.29102818 142.273084 157 153 C157.86842529 154.2068042 157.86842529 154.2068042 158.75439453 155.43798828 C196.02646198 207.43996014 226.23964336 264.83286586 248 325 C248.256745 325.70860168 248.51348999 326.41720337 248.77801514 327.14727783 C275.83410253 402.0338346 291.61689778 480.47394716 296 560 C296.04096802 560.66256805 296.08193604 561.32513611 296.12414551 562.00778198 C297.22280788 579.8874414 297.24395148 597.78127362 297.25 615.6875 C297.25088371 616.88891695 297.25088371 616.88891695 297.25178528 618.11460495 C297.26664658 646.83581384 296.40457008 675.36797383 294 704 C293.92974609 704.86067078 293.85949219 705.72134155 293.78710938 706.60809326 C286.08834485 800.89322547 265.3706516 893.60972823 238 984 C237.74067688 984.85682373 237.48135376 985.71364746 237.21417236 986.59643555 C217.00389547 1053.21687802 191.83807995 1118.22188412 164 1182 C163.68073547 1182.73198608 163.36147095 1183.46397217 163.03253174 1184.21813965 C152.78847303 1207.68653373 142.07534597 1230.91291795 131 1254 C130.65819702 1254.71283142 130.31639404 1255.42566284 129.9642334 1256.16009521 C117.54918556 1282.03792713 105.00864388 1307.88258372 91.48779297 1333.20410156 C90.02436769 1335.95420762 88.57011985 1338.70897334 87.11805725 1341.46508789 C79.78642765 1355.37923818 72.40277002 1369.2458877 64.60009766 1382.90356445 C61.001755 1389.20375933 57.50973046 1395.55352934 54.0625 1401.9375 C48.79429954 1411.66594802 43.26066239 1421.22389903 37.65625 1430.76171875 C33.79235126 1437.33850094 29.98910618 1443.94957787 26.1875 1450.5625 C21.68441743 1458.3922623 17.15164159 1466.19834216 12.4362793 1473.90258789 C10.72458973 1476.28579785 10.72458973 1476.28579785 10 1479 C10.58547419 1479.01866401 11.17094837 1479.03732801 11.7741642 1479.0565576 C46.57203568 1480.16588946 81.36986776 1481.27644898 116.16765004 1482.3885751 C120.3576974 1482.52248664 124.54774509 1482.65638806 128.73779297 1482.7902832 C129.57186027 1482.81693643 130.40592757 1482.84358965 131.26526964 1482.87105054 C144.7220433 1483.30104736 158.17884292 1483.73022616 171.63565254 1484.15909588 C185.471668 1484.6000694 199.30765467 1485.04193771 213.14361572 1485.48461491 C221.66232797 1485.75714084 230.18106119 1486.02899138 238.69982368 1486.2999425 C244.56313434 1486.48650061 250.42641652 1486.67393771 256.28967828 1486.86202674 C259.65862674 1486.97007532 263.02758858 1487.07764258 266.39657784 1487.18441582 C282.60209199 1487.69828869 298.80189255 1488.28857199 315 1489 C315.30179924 1488.08034391 315.30179924 1488.08034391 315.60969543 1487.14210892 C316.00942818 1485.93182085 316.00942818 1485.93182085 316.41723633 1484.69708252 C316.68031082 1483.89835346 316.94338531 1483.0996244 317.21443176 1482.27669144 C318.20538716 1479.40475804 319.4042954 1476.674882 320.6875 1473.921875 C321.21118164 1472.78540527 321.73486328 1471.64893555 322.27441406 1470.47802734 C322.55385864 1469.87512878 322.83330322 1469.27223022 323.12121582 1468.65106201 C352.98585838 1404.04528192 378.63309617 1337.12371598 401.98565674 1269.91870117 C403.0183811 1266.94710969 404.05388779 1263.97649589 405.08935547 1261.00585938 C438.72898664 1164.33382156 466.14628546 1065.26511752 492 874 C492.04236786 873.26608032 492.08473572 872.53216064 492.12838745 871.77600098 C492.91276349 857.88892807 493.20289752 844.03309837 493.1875 830.125 C493.18689575 829.10397186 493.1862915 828.08294373 493.18566895 827.03097534 C493.10307909 775.26979492 487.34244395 723.10973568 469.1640625 674.328125 C468.18218638 671.52088187 467.5425426 668.91050851 467 666 C473.41501943 669.36363795 479.26796029 673.16153658 485.0625 677.5 C485.88322998 678.11020996 486.70395996 678.72041992 487.54956055 679.34912109 C495.55297441 685.34105612 503.33534002 691.58209803 511 698 C511.60682617 698.50772949 512.21365234 699.01545898 512.83886719 699.53857422 C514.6269399 701.040536 516.40884456 702.5494016 518.1875 704.0625 C518.68483643 704.48418457 519.18217285 704.90586914 519.69458008 705.34033203 C531.0416567 715.09113416 541.71045763 725.54805645 552.26806641 736.13769531 C554.38981009 738.26484784 556.51691491 740.38653561 558.64453125 742.5078125 C560.0211544 743.88509583 561.39746766 745.26268899 562.7734375 746.640625 C563.39648773 747.261651 564.01953796 747.882677 564.66146851 748.52252197 C568.97063083 752.85439197 573.01456343 757.37030199 577 762 C578.04555221 763.19126645 579.09223182 764.38154552 580.140625 765.5703125 C586.40133962 772.71291593 592.44497888 779.96929141 598.2578125 787.48046875 C600.11876882 789.88336663 602.00970445 792.25728359 603.9296875 794.61328125 C629.83568996 826.41565725 651.41604909 862.05563117 671 898 C671.53447754 898.97565918 672.06895508 899.95131836 672.61962891 900.95654297 C714.87890286 978.54670175 740.68425714 1065.38477032 765 1279 C765.01643555 1280.1632077 765.01643555 1280.1632077 765.03320312 1281.34991455 C766.6981542 1406.62218019 766.6981542 1406.62218019 755 1450 C756.11632813 1449.81969238 757.23265625 1449.63938477 758.3828125 1449.45361328 C767.09911646 1448.05605197 775.82057125 1446.71986648 784.5625 1445.4921875 C873.38431147 1432.98544621 961.71534268 1415.08471213 1047 1387 C1047.67695923 1386.77721375 1048.35391846 1386.55442749 1049.0513916 1386.32489014 C1107.9549987 1366.89181806 1169.140951 1342.00116624 1215 1299 C1215.5043457 1298.52965332 1216.00869141 1298.05930664 1216.52832031 1297.57470703 C1237.46511595 1277.89309969 1254.15245187 1251.78218048 1255.3359375 1222.30859375 C1255.80842967 1191.52910351 1245.18988526 1162.10672606 1226.23828125 1137.734375 C1225 1136 1225 1136 1225 1134 C1232.19954229 1134.69174346 1239.04953837 1136.35561041 1246.05859375 1138.10546875 C1247.97357666 1138.57897263 1247.97357666 1138.57897263 1249.92724609 1139.06204224 C1254.09941938 1140.0955648 1258.26855787 1141.14103402 1262.4375 1142.1875 C1263.87924115 1142.54853628 1265.3209831 1142.90956939 1266.76272583 1143.27059937 C1323.16748166 1157.41412886 1378.81944592 1172.83993954 1431 1199 C1431.92006836 1199.45874512 1432.84013672 1199.91749023 1433.78808594 1200.39013672 C1453.32705521 1210.18784666 1471.90504037 1221.3437086 1489 1235 C1489.56090332 1235.44520996 1490.12180664 1235.89041992 1490.69970703 1236.34912109 C1517.65582975 1257.92200627 1539.99055096 1285.24071128 1544.6875 1320.5 C1544.8146062 1321.99823053 1544.91715078 1323.49867169 1545 1325 C1545.05285156 1325.91523437 1545.10570313 1326.83046875 1545.16015625 1327.7734375 C1546.2557176 1365.59412057 1526.77045393 1399.08681044 1503 1427 C1502.13571486 1428.04865258 1501.27248595 1429.09817633 1500.41015625 1430.1484375 C1494.52069927 1437.24958122 1488.27020421 1443.91060359 1481.75 1450.4375 C1481.00564697 1451.18265869 1480.26129395 1451.92781738 1479.49438477 1452.69555664 C1474.81815086 1457.3250334 1469.98640007 1461.70903448 1465 1466 C1463.84354453 1467.0217337 1462.68855239 1468.04512649 1461.53515625 1469.0703125 C1453.00661959 1476.59606599 1444.18708992 1483.61975637 1435.08349609 1490.43554688 C1433.10595336 1491.92044187 1431.1393429 1493.41856285 1429.17578125 1494.921875 C1411.75472469 1508.20908343 1393.6731894 1520.54594811 1375 1532 C1373.95183105 1532.64582031 1372.90366211 1533.29164062 1371.82373047 1533.95703125 C1356.07692874 1543.65366585 1340.19954641 1553.07400512 1324 1562 C1323.04738281 1562.52513184 1322.09476563 1563.05026367 1321.11328125 1563.59130859 C1305.21472871 1572.32861392 1289.14376941 1580.72606874 1273 1589 C1272.07574219 1589.47646973 1271.15148438 1589.95293945 1270.19921875 1590.44384766 C1255.09735697 1598.21571319 1239.68455868 1605.25750525 1224.19506836 1612.21311951 C1219.74907295 1614.20982537 1215.31148482 1616.22367837 1210.87890625 1618.25 C1131.66172248 1654.34120485 1049.22533001 1682.25471299 965 1704 C963.99731079 1704.25974609 962.99462158 1704.51949219 961.96154785 1704.78710938 C864.84329018 1729.93459412 766.15376302 1748.80787571 370.96398926 1785.91143799 C368.14870821 1785.9955567 365.33363185 1786.08463837 362.51855469 1786.17529297 C274.36837308 1788.9658426 185.9379113 1787.05878415 -564.625 1698.625 C-565.61280457 1698.43997421 -566.60060913 1698.25494843 -567.61834717 1698.0643158 C-644.88087072 1683.58671759 -644.88087072 1683.58671759 -682.9375 1674.8125 C-684.10360809 1674.54509003 -685.26971619 1674.27768005 -686.47116089 1674.00216675 C-781.58521195 1652.14238296 -876.05189917 1624.04938887 -1003.38867188 1566.78808594 C-1006.61919201 1565.18477022 -1009.86223148 1563.6084791 -1013.109375 1562.0390625 C-1026.8159889 1555.37260384 -1039.93329346 1547.83773152 -1053 1540 C-1054.26166992 1539.24904053 -1054.26166992 1539.24904053 -1055.54882812 1538.48291016 C-1074.31705494 1527.30354191 -1092.11949601 1514.88117803 -1109 1501 C-1110.51787109 1499.7625 -1110.51787109 1499.7625 -1112.06640625 1498.5 C-1127.21888346 1485.95161012 -1141.56135682 1472.05480408 -1153 1456 C-1153.42039551 1455.4239502 -1153.84079102 1454.84790039 -1154.27392578 1454.25439453 C-1165.12974439 1439.2891954 -1172.63982365 1422.95366734 -1177 1405 C-1177.24492188 1404.02546875 -1177.48984375 1403.0509375 -1177.7421875 1402.046875 C-1184.1202176 1371.46727861 -1174.28818378 1339.50490729 -1157.61816406 1313.87548828 C-1154.58134492 1309.45025674 -1151.33007563 1305.20694486 -1148 1301 C-1146.90945313 1299.59234375 -1146.90945313 1299.59234375 -1145.796875 1298.15625 C-1132.16140958 1280.98566392 -1116.22966878 1265.52815426 -1099 1252 C-1098.35192383 1251.48469727 -1097.70384766 1250.96939453 -1097.03613281 1250.43847656 C-1086.64241904 1242.17535627 -1076.07027396 1234.33134072 -1065 1227 C-1064.23461914 1226.49114258 -1063.46923828 1225.98228516 -1062.68066406 1225.45800781 C-1050.33615791 1217.2731176 -1037.79377186 1209.46263353 -1025 1202 C-1024.12569336 1201.49001465 -1023.25138672 1200.9800293 -1022.35058594 1200.45458984 C-1007.36981943 1191.76228025 -992.07748338 1183.70499647 -976.64355469 1175.85546875 C-973.15514283 1174.0812841 -969.67556725 1172.29013394 -966.1953125 1170.5 C-949.47645899 1161.96137348 -932.44746141 1154.25569304 -915.24975586 1146.73971558 C-911.09004348 1144.92120348 -906.94119752 1143.08185315 -902.8046875 1141.2109375 C-886.87913119 1134.03612471 -870.68095131 1127.551611 -854.46166992 1121.07495117 C-852.52372635 1120.29916337 -850.58598076 1119.52288081 -848.6484375 1118.74609375 C-847.22658897 1118.17685432 -847.22658897 1118.17685432 -845.77601624 1117.59611511 C-837.48746659 1114.25186819 -829.30446552 1110.67823412 -821.16439819 1106.98765564 C-820.25372589 1106.58188797 -819.34305359 1106.1761203 -818.40478516 1105.75805664 C-817.60046051 1105.3939418 -816.79613586 1105.02982697 -815.96743774 1104.65467834 C-814 1104 -814 1104 -812 1105 C-812.61746094 1105.59425781 -813.23492188 1106.18851563 -813.87109375 1106.80078125 C-839.3524085 1131.73911517 -862.96230478 1166.71185306 -867 1203 C-867.13277344 1204.18335938 -867.26554687 1205.36671875 -867.40234375 1206.5859375 C-869.85926775 1234.68873116 -861.33406416 1260.85246377 -844 1283 C-838.96424075 1288.95022624 -833.51399906 1294.49513008 -828 1300 C-827.484375 1300.55042969 -826.96875 1301.10085938 -826.4375 1301.66796875 C-809.152408 1319.93943828 -784.57540672 1333.1733832 -762.14160156 1343.95947266 C-759.9233796 1345.0372271 -757.72355822 1346.14752485 -755.5234375 1347.26171875 C-674.84241743 1387.56928431 -579.9824125 1404.11790233 -440.17195129 1423.93861389 C-432.77079366 1424.89029756 -425.3817411 1425.90671046 -418 1427 C-417.91621094 1425.73542969 -417.83242188 1424.47085937 -417.74609375 1423.16796875 C-416.89622431 1414.75912191 -414.89750082 1406.54960845 -413.0625 1398.3125 C-412.86403473 1397.41628937 -412.66556946 1396.52007874 -412.46109009 1395.59671021 C-402.47831312 1350.63130649 -389.66107486 1306.59969616 -374.70196533 1263.04595947 C-374.03020367 1261.0880321 -373.36205864 1259.12890764 -372.69482422 1257.16943359 C-355.99470401 1208.32335998 -336.02149565 1160.4779555 -314.60546875 1113.52587891 C-313.18871248 1110.41444429 -311.78033268 1107.29946866 -310.37617493 1104.18234253 C-297.42085621 1075.42309915 -283.91744669 1046.92815748 -270.1640625 1018.54296875 C-267.83717971 1013.73883582 -265.53046938 1008.92572935 -263.23876953 1004.10473633 C-253.66990797 983.98447934 -243.79980139 964.00837694 -234 944 C-226.32864637 928.33562425 -218.65981013 912.67002428 -211 897 C-210.59567749 896.17308655 -210.19135498 895.3461731 -209.77478027 894.49420166 C-200.00912608 874.51918387 -190.39796078 854.47921831 -180.97444153 834.34046936 C-178.66618304 829.4110857 -176.3392625 824.49081446 -174.00390625 819.57421875 C-165.47522257 801.60190679 -157.25086321 783.51455027 -149.2293396 765.31051636 C-146.5639401 759.26541233 -143.87542191 753.23084898 -141.1796875 747.19921875 C-130.25643642 722.74644707 -119.53578258 698.21624011 -109.08483887 673.55780029 C-108.02103587 671.04959773 -106.95468461 668.54249307 -105.88769531 666.03564453 C-86.22906461 619.81219381 -67.30249411 573.16010178 -50 526 C-49.61152893 524.9432608 -49.61152893 524.9432608 -49.21520996 523.86517334 C-45.37104058 513.40349477 -41.59205131 502.9193083 -37.859375 492.4173584 C-37.27665946 490.77822263 -36.69330561 489.13931366 -36.109375 487.50061035 C-4.67760325 399.28845586 23.12298421 308.01294503 38 118 C37.95004883 117.17757812 37.90009766 116.35515625 37.84863281 115.5078125 C35.85115634 86.4998739 23.36070463 59.72330999 11.81103516 33.49560547 C8.5591341 26.09168766 5.39320021 18.66882865 2.5078125 11.11328125 C2.12397903 10.12402901 2.12397903 10.12402901 1.73239136 9.11479187 C0.49774493 5.8125142 0 3.58977079 0 0 Z " fill="#F4811E" transform="translate(1199,33)"/>
<path d="M0 0 C-1.52415264 3.56178985 -3.64186259 5.90321844 -6.3125 8.6875 C-60.65809767 67.01449687 -93.08187908 148.73085056 -119 223 C-119.25352234 223.72320435 -119.50704468 224.44640869 -119.76824951 225.19152832 C-153.06847968 320.22404616 -172.47987076 420.41441245 -197.06180191 652.75482559 C-197.18215699 654.66519172 -197.3043387 656.57544251 -197.42660522 658.48568726 C-198.02729178 667.98694286 -198.53581484 677.49130476 -199 687 C-199.04325535 687.87218674 -199.0865107 688.74437347 -199.13107681 689.64299011 C-201.07203041 729.0565228 -201.36224565 768.42899845 -201.31745148 807.87940979 C-201.31286208 811.98224893 -201.31125846 816.08508319 -201.31051564 820.18792462 C-201.30039956 868.94447015 -200.74448339 917.60655207 -198.19000244 966.30609131 C-197.88795907 972.17822976 -197.62232955 978.05195724 -197.35546875 983.92578125 C-196.94078757 992.95267176 -196.49509699 1001.97714627 -196 1011 C-199.3977828 1009.75137487 -202.17270987 1008.34778645 -205.08203125 1006.19921875 C-205.84112793 1005.64081299 -206.60022461 1005.08240723 -207.38232422 1004.50708008 C-208.18428223 1003.90661865 -208.98624023 1003.30615723 -209.8125 1002.6875 C-210.65055176 1002.06447998 -211.48860352 1001.44145996 -212.35205078 1000.79956055 C-220.42265736 994.75843599 -228.25728062 988.45364558 -236 982 C-236.57975586 981.51934082 -237.15951172 981.03868164 -237.75683594 980.54345703 C-244.69862753 974.78117329 -251.44467574 968.84746279 -258.05078125 962.703125 C-260.2257558 960.68701167 -262.45229333 958.74228055 -264.69970703 956.80737305 C-268.88124298 953.15299304 -272.83423054 949.31062949 -276.75390625 945.37890625 C-277.81072853 944.32351906 -277.81072853 944.32351906 -278.88890076 943.24681091 C-280.36653367 941.76985352 -281.84292457 940.29165258 -283.31811523 938.81225586 C-285.55666481 936.56834915 -287.80050473 934.32983296 -290.04492188 932.09179688 C-291.48990404 930.64615382 -292.93457592 929.20020055 -294.37890625 927.75390625 C-295.03951553 927.0953212 -295.70012482 926.43673615 -296.38075256 925.75819397 C-300.23895229 921.88082193 -303.91728008 917.89560832 -307.48719788 913.75091553 C-309.56379182 911.34746796 -311.71982263 909.02046136 -313.875 906.6875 C-317.96880209 902.19851943 -321.85469667 897.58756524 -325.66796875 892.859375 C-327.70517874 890.36148939 -329.78431226 887.90698863 -331.88574219 885.46313477 C-336.70300702 879.85534884 -341.24460747 874.0965856 -345.6875 868.1875 C-349.59596717 862.9999707 -353.50885838 858.13645002 -358.25 853.671875 C-360.70766232 851.32392975 -362.88004144 848.76345178 -365.09375 846.1875 C-367.30945648 843.64488601 -369.59098592 841.16889802 -371.875 838.6875 C-376.32186477 833.80663191 -380.52428901 828.77624476 -384.66748047 823.63720703 C-386.18221604 821.77611932 -387.71671785 819.93242794 -389.25390625 818.08984375 C-397.15061132 808.6113811 -404.71438413 798.95495563 -412 789 C-412.50853516 788.3085791 -413.01707031 787.6171582 -413.54101562 786.90478516 C-433.33069208 759.9619909 -451.43374041 732.03242176 -468 703 C-468.67192383 701.82606689 -468.67192383 701.82606689 -469.35742188 700.62841797 C-511.08624534 627.47277777 -541.60533678 547.49274034 -575.25 313.875 C-575.25029457 313.20355831 -575.25058914 312.53211662 -575.25089264 311.84032822 C-575.25710634 223.85322114 -558.31325944 137.74347263 -500 21 C-499.6008407 20.14510701 -499.20168141 19.29021402 -498.79042637 18.40941519 C-497 16 -497 16 -494.33579338 15.31721646 C-492.70507383 15.27434479 -492.70507383 15.27434479 -491.04141045 15.23060703 C-489.7797524 15.18405763 -488.51809436 15.13750822 -487.21820426 15.08954823 C-486.53415624 15.07541695 -485.85010822 15.06128568 -485.14533147 15.04672618 C-482.96096513 14.9991498 -480.78012938 14.91777741 -478.59712434 14.82770813 C-473.51147416 14.62342332 -468.42474453 14.46670113 -463.33743286 14.31028748 C-461.37176392 14.24778884 -459.40610273 14.18504611 -457.44044864 14.12208229 C-452.07185373 13.95081928 -446.70315577 13.78300772 -441.33443356 13.61578953 C-435.53209088 13.43445427 -429.7298508 13.24988927 -423.92759705 13.06573486 C-412.57563104 12.70594963 -401.22357374 12.34912803 -389.87148257 11.99331646 C-377.31878788 11.59976832 -364.76617693 11.20358546 -352.2135739 10.80712652 C-327.24409793 10.0185013 -302.27452849 9.23287383 -277.30490989 8.44877898 C-255.1286673 7.7523881 -232.95248819 7.05401171 -210.77636719 6.35375977 C-209.35149694 6.30876763 -207.92662669 6.2637755 -206.50175644 6.21878337 C-205.44510217 6.18541792 -205.44510217 6.18541792 -204.36710134 6.15137841 C-200.82093733 6.03940313 -197.27477325 5.92742994 -193.72860909 5.81545925 C-193.02897669 5.79336788 -192.3293443 5.77127651 -191.60851093 5.74851571 C-169.08492124 5.03734077 -146.56127078 4.32809518 -124.03761414 3.61904411 C-114.82039471 3.32884935 -105.60319027 3.03818102 -96.38599014 2.74737358 C-85.15875126 2.39318489 -73.93148245 2.03996209 -62.70417543 1.68793993 C-56.97561336 1.50830926 -51.24706446 1.32828348 -45.51854897 1.14717293 C-40.2758578 0.98143664 -35.0331314 0.81686543 -29.79037426 0.65322972 C-27.89293721 0.59380517 -25.99551338 0.53395673 -24.09810437 0.47364359 C-21.51994684 0.39175672 -18.94174545 0.31141941 -16.3635273 0.23146725 C-15.62648119 0.20768791 -14.88943508 0.18390858 -14.13005424 0.15940866 C-9.41781137 0.01541774 -4.71448363 -0.01961391 0 0 Z " fill="#F4811E" transform="translate(1819,1904)"/>
<path d="M0 0 C-1.33393799 0.62152954 -1.33393799 0.62152954 -2.69482422 1.25561523 C-23.26582902 10.85657732 -43.68858319 20.73615168 -64 30.875 C-65.03461365 31.38980927 -66.06922729 31.90461853 -67.13519287 32.43502808 C-81.60326022 39.64034672 -95.87464938 47.14386003 -110 55 C-110.67861084 55.37711121 -111.35722168 55.75422241 -112.05639648 56.14276123 C-151.65271569 78.19711032 -190.31612817 102.40385654 -225.17822266 131.48681641 C-226.86137382 132.88485593 -228.55912786 134.26248839 -230.26171875 135.63671875 C-246.98391415 149.33279998 -263.52383906 165.30857899 -276 183 C-276.76699219 184.04542969 -277.53398437 185.09085938 -278.32421875 186.16796875 C-297.1154232 212.36080212 -309.39829156 242.02447177 -304.06933594 274.69604492 C-302.90199428 280.97535783 -301.3927328 287.07964137 -299 293 C-298.53980469 294.17820312 -298.07960938 295.35640625 -297.60546875 296.5703125 C-293.55684191 306.57402994 -288.36883695 315.30725896 -282 324 C-281.360625 324.88429688 -280.72125 325.76859375 -280.0625 326.6796875 C-269.05344875 340.92930625 -255.38263359 354.12825459 -240.80322266 364.68847656 C-238.83388689 366.12081771 -236.89210203 367.5866907 -234.94921875 369.0546875 C-217.66707991 381.97233412 -198.98365451 392.79594043 -180 403 C-178.75790771 403.67530762 -178.75790771 403.67530762 -177.49072266 404.36425781 C-130.43081481 429.88382873 -79.55480339 448.58393504 -28.875 465.5 C-28.01983795 465.78577911 -27.1646759 466.07155823 -26.28359985 466.36599731 C-9.81903337 471.85259392 6.76506484 476.90166196 23.5 481.5 C30.90718105 483.55063627 38.28012204 485.6745832 45.625 487.9375 C55.29426911 490.89448125 65.07588484 493.39819208 74.87207031 495.89379883 C76.21681322 496.23642673 77.56153972 496.57911905 78.90625 496.921875 C79.57662292 497.09273117 80.24699585 497.26358734 80.93768311 497.43962097 C89.21678682 499.55666768 97.46615692 501.78622462 105.71044922 504.03466797 C126.60558372 509.67179018 147.74521415 514.34022239 168.875 519 C171.13416016 519.49979404 173.3932748 519.99979387 175.65234375 520.5 C180.15728341 521.49731386 184.66253584 522.4931983 189.16796875 523.48828125 C193.84867341 524.52281416 198.52824322 525.56230223 203.20703125 526.60546875 C220.20753308 530.40002423 220.20753308 530.40002423 237.25 534 C238.44520264 534.24580811 239.64040527 534.49161621 240.87182617 534.74487305 C254.0976805 537.44998527 267.34803282 540.02496689 280.61010742 542.54559326 C283.17707274 543.03366806 285.74380554 543.52295578 288.31054688 544.01220703 C317.82527143 549.6319937 347.38486599 554.93766751 377 560 C378.8414791 560.31522167 380.68295049 560.63048838 382.52441406 560.94580078 C389.57081476 562.15195595 396.61740212 563.35699497 403.66503906 564.5559082 C411.2812765 565.85159056 418.89662954 567.15147128 426.5078125 568.4765625 C427.17052658 568.59173721 427.83324066 568.70691193 428.51603699 568.82557678 C431.52684583 569.34889831 434.53731673 569.87399311 437.54711914 570.40307617 C444.20200236 571.56113507 450.86641106 572.57394872 457.5559082 573.51098633 C462.87890967 574.26677933 468.18840479 575.10597627 473.5 575.9375 C482.83015139 577.38896229 492.16684193 578.74871472 501.53125 579.96069336 C505.76144896 580.5171896 509.95435167 581.1558671 514.1484375 581.94140625 C521.29742374 583.27022806 528.48979437 584.29013169 535.6875 585.3125 C536.43654602 585.41949219 537.18559204 585.52648438 537.95733643 585.63671875 C551.94395933 587.62962659 565.95408191 589.40485 579.97631836 591.12646484 C590.17325057 592.38092755 600.35445205 593.71788811 610.53060913 595.13037109 C646.14695245 600.05911471 681.89220318 603.94124394 717.69165039 607.26367188 C719.70069613 607.45038601 721.70972941 607.63723417 723.71875 607.82421875 C724.71257187 607.91662338 725.70639374 608.00902802 726.73033142 608.10423279 C734.39099065 608.82596634 742.03884111 609.64595715 749.6875 610.484375 C764.2732317 612.07373921 778.87808473 613.35713225 793.5 614.5625 C794.80693817 614.67116394 796.11387634 614.77982788 797.4604187 614.89178467 C814.06378167 616.27008896 830.65887627 617.5158545 847.29931641 618.33447266 C854.63090473 618.69624611 861.94983154 619.11942007 869.26953125 619.67578125 C891.30082967 621.34465481 913.335047 622.56946659 935.4074173 623.52812576 C937.55283186 623.62184736 939.69814598 623.71760425 941.84344482 623.81393433 C990.51825632 625.98577625 1039.21544572 626.21318404 1087.92985523 626.23881638 C1088.80136726 626.23928432 1089.67287929 626.23975226 1090.57080078 626.24023438 C1091.44320125 626.24070263 1092.31560171 626.24117088 1093.21443856 626.24165332 C1099.3156883 626.24598721 1105.41685057 626.26092533 1111.51806641 626.28125 C1149.85374888 626.40602875 1188.12354082 626.1158361 1226.43359375 624.609375 C1227.23949023 624.57780084 1228.04538671 624.54622667 1228.87570429 624.51369572 C1270.46397127 622.87352648 1312.0622041 620.7266891 1353.49389648 616.71826172 C1360.00408458 616.08902497 1366.5168477 615.51070003 1373.03515625 614.97265625 C1373.94760101 614.89720581 1374.86004578 614.82175537 1375.80014038 614.74401855 C1377.62218273 614.5936926 1379.44424485 614.44360616 1381.2663269 614.29376221 C1428.07090287 610.42271089 1474.61798532 604.8457053 1521.15136719 598.51953125 C1524.76071363 598.03230154 1528.37095058 597.55254775 1531.98167419 597.07566833 C1535.28296044 596.63927132 1538.58383745 596.19982381 1541.88467407 595.76004028 C1543.46506167 595.55008344 1545.04560086 595.34126353 1546.62631226 595.13375854 C1555.24637774 594.00098642 1563.81836691 592.73395759 1572.37400818 591.18553162 C1577.93566137 590.17948503 1583.50693832 589.24840287 1589.0859375 588.34375 C1658.28319219 577.20353908 1658.28319219 577.20353908 1726.77685547 562.45605469 C1731.55762751 561.29657873 1736.3601913 560.32929937 1741.19091797 559.40112305 C1755.36342219 556.67407535 1769.34221031 553.31387631 1783.35020447 549.85945129 C1784.13440262 549.66606674 1784.91860077 549.47268219 1785.7265625 549.2734375 C1786.50814224 549.08057663 1787.28972198 548.88771576 1788.09498596 548.68901062 C1795.73544615 546.80878174 1803.39626161 545.02167183 1811.0625 543.25 C1831.74830525 538.45678164 1852.28961861 533.24783759 1872.68823242 527.34741211 C1878.23646011 525.75434682 1883.80156146 524.26559793 1889.3972168 522.84863281 C1902.79190577 519.45095561 1915.88405966 515.3402991 1929 511 C1930.35602079 510.55406083 1931.71214471 510.10843514 1933.06835938 509.66308594 C1943.72966062 506.16010871 1954.37218315 502.6032805 1965 499 C1965.70854126 498.76001282 1966.41708252 498.52002563 1967.14709473 498.27276611 C2016.6235139 481.48761883 2064.6500687 461.0149986 2112 439 C2113.07540039 438.50097168 2114.15080078 438.00194336 2115.25878906 437.48779297 C2126.01994578 432.47939961 2136.60558261 427.21098316 2147.07421875 421.6171875 C2150.51912035 419.77739974 2153.98083219 417.97525347 2157.45703125 416.1953125 C2170.669524 409.41653186 2183.53682925 402.17079623 2196.30664062 394.59277344 C2198.70223236 393.17609102 2201.10558652 391.77472381 2203.515625 390.3828125 C2237.70658339 370.60238932 2271.21317553 348.03454006 2300.41796875 321.3359375 C2301.84286287 320.04685024 2303.27413712 318.76432945 2304.73120117 317.51171875 C2317.46442919 306.56060021 2329.9497507 294.4921155 2340 281 C2340.88363137 279.8563973 2341.76778291 278.71319642 2342.65234375 277.5703125 C2352.23654335 265.02122851 2359.82806101 251.54002805 2366 237 C2366.56847656 235.6696875 2366.56847656 235.6696875 2367.1484375 234.3125 C2376.37190883 211.01109874 2375.11106024 186.12322452 2365.29589844 163.33984375 C2349.94285643 129.73695935 2318.23676675 106.70083449 2287 89 C2286.09185547 88.48083008 2285.18371094 87.96166016 2284.24804688 87.42675781 C2233.09337801 58.34955315 2175.63316376 40.08839764 2119 25 C2122.03245148 24.04501798 2123.95215395 23.9954261 2127.01367188 24.81347656 C2127.79945114 25.01871948 2128.58523041 25.2239624 2129.39482117 25.4354248 C2130.24421768 25.66814087 2131.0936142 25.90085693 2131.96875 26.140625 C2133.31227287 26.49743347 2133.31227287 26.49743347 2134.68293762 26.8614502 C2137.62496279 27.64689596 2140.56256289 28.44757873 2143.5 29.25 C2145.54060058 29.80113692 2147.58120938 30.35224341 2149.62182617 30.90332031 C2167.24312817 35.68977127 2184.73004723 40.86673035 2202.12866211 46.40551758 C2203.89379805 46.966262 2205.66071295 47.52139763 2207.42773438 48.07617188 C2232.51414383 55.97631187 2256.50179792 66.21947375 2280 78 C2280.92006836 78.45874512 2281.84013672 78.91749023 2282.78808594 79.39013672 C2302.32705521 89.18784666 2320.90504037 100.3437086 2338 114 C2338.56090332 114.44520996 2339.12180664 114.89041992 2339.69970703 115.34912109 C2366.65582975 136.92200627 2388.99055096 164.24071128 2393.6875 199.5 C2393.8146062 200.99823053 2393.91715078 202.49867169 2394 204 C2394.07927734 205.37285156 2394.07927734 205.37285156 2394.16015625 206.7734375 C2395.2557176 244.59412057 2375.77045393 278.08681044 2352 306 C2351.13571486 307.04865258 2350.27248595 308.09817633 2349.41015625 309.1484375 C2343.52069927 316.24958122 2337.27020421 322.91060359 2330.75 329.4375 C2330.00564697 330.18265869 2329.26129395 330.92781738 2328.49438477 331.69555664 C2323.81815086 336.3250334 2318.98640007 340.70903448 2314 345 C2312.84354453 346.0217337 2311.68855239 347.04512649 2310.53515625 348.0703125 C2302.00661959 355.59606599 2293.18708992 362.61975637 2284.08349609 369.43554688 C2282.10595336 370.92044187 2280.1393429 372.41856285 2278.17578125 373.921875 C2260.75472469 387.20908343 2242.6731894 399.54594811 2224 411 C2222.95183105 411.64582031 2221.90366211 412.29164063 2220.82373047 412.95703125 C2205.07692874 422.65366585 2189.19954641 432.07400512 2173 441 C2171.57107422 441.78769775 2171.57107422 441.78769775 2170.11328125 442.59130859 C2154.21472871 451.32861392 2138.14376941 459.72606874 2122 468 C2121.07574219 468.47646973 2120.15148438 468.95293945 2119.19921875 469.44384766 C2104.09735697 477.21571319 2088.68455868 484.25750525 2073.19506836 491.21311951 C2068.74907295 493.20982537 2064.31148482 495.22367837 2059.87890625 497.25 C1980.66172248 533.34120485 1898.22533001 561.25471299 1814 583 C1812.99731079 583.25974609 1811.99462158 583.51949219 1810.96154785 583.78710938 C1713.84329018 608.93459412 1615.15376302 627.80787571 1219.96398926 664.91143799 C1217.14870821 664.9955567 1214.33363185 665.08463837 1211.51855469 665.17529297 C1123.36837308 667.9658426 1034.9379113 666.05878415 284.375 577.625 C283.38719543 577.43997421 282.39939087 577.25494843 281.38165283 577.0643158 C204.11912928 562.58671759 204.11912928 562.58671759 166.0625 553.8125 C164.89639191 553.54509003 163.73028381 553.27768005 162.52883911 553.00216675 C67.41478805 531.14238296 -27.05189917 503.04938887 -154.38867188 445.78808594 C-157.61919201 444.18477022 -160.86223148 442.6084791 -164.109375 441.0390625 C-177.8159889 434.37260384 -190.93329346 426.83773152 -204 419 C-204.84111328 418.49936035 -205.68222656 417.9987207 -206.54882812 417.48291016 C-225.31705494 406.30354191 -243.11949601 393.88117803 -260 380 C-261.01191406 379.175 -262.02382813 378.35 -263.06640625 377.5 C-278.21888346 364.95161012 -292.56135682 351.05480408 -304 335 C-304.42039551 334.4239502 -304.84079102 333.84790039 -305.27392578 333.25439453 C-316.12974439 318.2891954 -323.63982365 301.95366734 -328 284 C-328.24492187 283.02546875 -328.48984375 282.0509375 -328.7421875 281.046875 C-335.1202176 250.46727861 -325.28818378 218.50490729 -308.61816406 192.87548828 C-305.58134492 188.45025674 -302.33007563 184.20694486 -299 180 C-298.27296875 179.0615625 -297.5459375 178.123125 -296.796875 177.15625 C-283.16140958 159.98566392 -267.22966878 144.52815426 -250 131 C-249.35192383 130.48469727 -248.70384766 129.96939453 -248.03613281 129.43847656 C-237.64241904 121.17535627 -227.07027396 113.33134072 -216 106 C-215.23461914 105.49114258 -214.46923828 104.98228516 -213.68066406 104.45800781 C-201.33615791 96.2731176 -188.79377186 88.46263353 -176 81 C-174.68854004 80.23502197 -174.68854004 80.23502197 -173.35058594 79.45458984 C-158.36981943 70.76228025 -143.07748338 62.70499647 -127.64355469 54.85546875 C-124.15514283 53.0812841 -120.67556725 51.29013394 -117.1953125 49.5 C-99.78731357 40.60941422 -82.03080714 32.63568235 -64.12548828 24.80859375 C-60.50164604 23.22298673 -56.88770607 21.61610364 -53.27734375 20 C-42.19356121 15.04752156 -31.03670691 10.27709678 -19.81237793 5.65267944 C-18.36328188 5.05467157 -16.91542404 4.45365371 -15.46887207 3.84951782 C-13.45440998 3.00982695 -11.43517942 2.18289529 -9.4140625 1.359375 C-8.2482666 0.87952148 -7.0824707 0.39966797 -5.88134766 -0.09472656 C-3 -1 -3 -1 0 0 Z " fill="#010000" transform="translate(350,1154)"/>
<path d="M0 0 C109.23 0 218.46 0 331 0 C331 25.08 331 50.16 331 76 C251.8 76 172.6 76 91 76 C91 108.34 91 140.68 91 174 C164.92 174 238.84 174 315 174 C315 199.08 315 224.16 315 250 C241.08 250 167.16 250 91 250 C91 289.6 91 329.2 91 370 C172.84 370 254.68 370 339 370 C339 395.41 339 420.82 339 447 C227.13 447 115.26 447 0 447 C0 299.49 0 151.98 0 0 Z " fill="#000000" transform="translate(2332,3105)"/>
<path d="M0 0 C109.23 0 218.46 0 331 0 C331 25.08 331 50.16 331 76 C251.8 76 172.6 76 91 76 C91 108.34 91 140.68 91 174 C164.92 174 238.84 174 315 174 C315 199.08 315 224.16 315 250 C241.08 250 167.16 250 91 250 C91 289.6 91 329.2 91 370 C172.84 370 254.68 370 339 370 C339 395.41 339 420.82 339 447 C227.13 447 115.26 447 0 447 C0 299.49 0 151.98 0 0 Z " fill="#000000" transform="translate(672,3105)"/>
<path d="M0 0 C30.03 0 60.06 0 91 0 C91.029729 12.50310059 91.029729 12.50310059 91.06005859 25.25878906 C91.12508348 52.03295371 91.19962959 78.8070839 91.28005161 105.58120646 C91.29256811 109.75107753 91.30500126 113.92094884 91.31738281 118.09082031 C91.31984881 118.92084776 91.3223148 119.7508752 91.32485552 120.60605499 C91.36440831 133.98577127 91.3972323 147.36549581 91.42749982 160.74523595 C91.45878836 174.50894672 91.49746965 188.27262292 91.54279006 202.0362947 C91.57045205 210.50588132 91.59257965 218.97544314 91.60726251 227.44506237 C91.61793436 233.27990436 91.63588829 239.11469783 91.65916704 244.94950297 C91.6723267 248.29874264 91.68157038 251.64785822 91.68421364 254.99713135 C90.84998369 308.59742493 90.84998369 308.59742493 115.87890625 354.1015625 C134.77899694 372.37950256 160.38354044 375.67538461 185.46899414 375.40429688 C208.30253297 375.01135599 229.1233554 369.05400165 246 353 C267.01147365 328.88496403 264.30339311 293.5218709 264.31667423 263.49634945 C264.32044611 259.94322154 264.33563735 256.39013733 264.34928894 252.83703613 C264.37132696 246.71294068 264.38647946 240.58886126 264.39665604 234.46473503 C264.4113792 225.61080002 264.43695184 216.75692105 264.46498732 207.90301938 C264.51021095 193.53049471 264.54692538 179.15796185 264.578125 164.78540039 C264.60841155 150.84202645 264.64280733 136.8986724 264.68261719 122.95532227 C264.68507874 122.09267464 264.68754028 121.23002701 264.69007643 120.34123855 C264.70245298 116.01263948 264.71490914 111.68404065 264.72740483 107.35544193 C264.83060591 71.5703183 264.91833127 35.78518052 265 0 C295.36 0 325.72 0 357 0 C357.02214044 32.03414739 357.0405676 64.06828722 357.05106533 96.10243999 C357.05231569 99.90406808 357.05361005 103.70569615 357.05493164 107.50732422 C357.05532511 108.64234246 357.05532511 108.64234246 357.05572652 109.80029036 C357.06005073 121.97319259 357.06791995 134.14608999 357.0771528 146.31898938 C357.0865805 158.85551084 357.09207467 171.3920298 357.09408849 183.92855465 C357.09532482 190.95071494 357.09826856 197.97286515 357.10573006 204.99502182 C357.27511801 369.49917428 357.27511801 369.49917428 318.38867188 408.58789062 C317.16078884 409.83649742 315.97527825 411.12646717 314.796875 412.421875 C292.45203938 436.47242326 257.63958286 447.7015872 226 452 C225.23494141 452.10441406 224.46988281 452.20882812 223.68164062 452.31640625 C167.69703273 459.46722925 100.43093105 456.2751425 54.16015625 420.82421875 C23.01367312 396.086477 8.75220604 362.8246267 4 324 C3.34723524 318.09144418 2.81713831 312.17278842 2.3125 306.25 C2.22136429 305.20872955 2.22136429 305.20872955 2.12838745 304.14642334 C0.06519837 280.13963057 -0.15183368 256.01252834 -0.11352539 231.93237305 C-0.11324223 229.37640382 -0.11340376 226.82043451 -0.1139679 224.26446533 C-0.11419277 218.83233201 -0.11142897 213.40021442 -0.10573006 207.96808434 C-0.09749655 200.11477334 -0.09498792 192.26146811 -0.09374207 184.40815327 C-0.09156983 171.65727137 -0.08496012 158.90639597 -0.07543945 146.15551758 C-0.06621748 133.79158561 -0.05916026 121.42765543 -0.05493164 109.0637207 C-0.05466892 108.29770783 -0.05440619 107.53169496 -0.05413551 106.74246957 C-0.05283018 102.89844353 -0.05156654 99.05441747 -0.05032361 95.2103914 C-0.0400081 63.47358849 -0.02160119 31.73679773 0 0 Z " fill="#000000" transform="translate(1467,3105)"/>
<path d="M0 0 C13.69942368 -0.23179185 27.39838034 -0.40942931 41.09936619 -0.51812172 C47.46156172 -0.57029216 53.82241496 -0.64104023 60.18383789 -0.75439453 C66.32421467 -0.86312412 72.46330139 -0.92285728 78.60456657 -0.94877243 C80.94629162 -0.96723737 83.28794669 -1.00329762 85.62912178 -1.05730057 C103.98529853 -1.46383987 103.98529853 -1.46383987 108.92556763 2.12565613 C110.77743935 4.71925757 111.88949499 7.02604909 113 10 C113.94623017 11.60134715 114.91675793 13.18884909 115.921875 14.75390625 C116.86744197 16.35508612 117.81007882 17.95799944 118.75 19.5625 C122.49023018 25.87058822 126.29702644 32.11325693 130.3125 38.25 C136.71181538 48.03554204 142.88017624 57.96242265 149.06054688 67.88720703 C152.20144297 72.92829782 155.35099071 77.96397481 158.5 83 C162.2647563 89.02154773 166.02811964 95.04394442 169.78515625 101.0703125 C178.11632886 114.4276765 186.52328837 127.73450957 195 141 C201.59657628 130.67031304 208.08028125 120.28505366 214.36083984 109.76000977 C218.16656052 103.38257427 222.00983048 97.02907839 225.875 90.6875 C226.46007324 89.7274707 227.04514648 88.76744141 227.64794922 87.77832031 C228.83772239 85.82655759 230.02766435 83.87489775 231.21777344 81.92333984 C234.14786239 77.1171912 237.07373957 72.30848026 240 67.5 C241.16664601 65.58332076 242.33331269 63.6666541 243.5 61.75 C244.36625 60.326875 244.36625 60.326875 245.25 58.875 C250.49999999 50.25000001 250.49999999 50.25000001 252.25195312 47.37182617 C253.41215073 45.4657641 254.57230735 43.55967709 255.73242188 41.65356445 C258.74772008 36.69943628 261.76384724 31.74581543 264.78125 26.79296875 C265.71517578 25.25962891 265.71517578 25.25962891 266.66796875 23.6953125 C267.84738861 21.75895154 269.0270564 19.82274156 270.20703125 17.88671875 C270.74714844 16.99984375 271.28726563 16.11296875 271.84375 15.19921875 C272.30974609 14.43440186 272.77574219 13.66958496 273.25585938 12.8815918 C274.99620781 10.1288725 274.99620781 10.1288725 276.11679268 7.57100582 C279.62669912 0.55859126 279.62669912 0.55859126 283.2400856 -0.91115665 C286.00895869 -1.23316102 288.62571837 -1.23855445 291.41162109 -1.13525391 C292.44637573 -1.13671417 293.48113037 -1.13817444 294.54724121 -1.13967896 C297.95812809 -1.13272667 301.36350915 -1.05503694 304.7734375 -0.9765625 C307.14137792 -0.95790556 309.509357 -0.94367364 311.87734985 -0.9336853 C318.102509 -0.89554808 324.3253255 -0.79735798 330.54956055 -0.68664551 C336.90381171 -0.58424916 343.25844242 -0.53865538 349.61328125 -0.48828125 C362.07654875 -0.38111287 374.5380794 -0.21049735 387 0 C385.77913668 3.11528437 384.54551497 5.9449023 382.7421875 8.765625 C382.29004883 9.47734863 381.83791016 10.18907227 381.37207031 10.92236328 C380.63102051 12.07454346 380.63102051 12.07454346 379.875 13.25 C379.08754395 14.48532471 379.08754395 14.48532471 378.28417969 15.74560547 C376.52695007 18.49975438 374.76355895 21.24990035 373 24 C371.73667832 25.97637023 370.47366464 27.95293736 369.2109375 29.9296875 C365.83283795 35.21517228 362.44934722 40.49718497 359.06445312 45.77832031 C355.70727076 51.01736697 352.3538232 56.2588026 349 61.5 C347.67318158 63.57291955 346.34635866 65.64583621 345.01953125 67.71875 C342.28659436 71.98883863 339.55498554 76.25977326 336.82421875 80.53125 C330.60079241 90.26403385 324.36990414 99.99114516 318.08081055 109.68164062 C313.74216147 116.37717675 309.46832851 123.11363175 305.19091797 129.84838867 C301.65245945 135.41553114 298.09229174 140.96745804 294.5 146.5 C289.80789354 153.72845019 285.17567693 160.9939645 280.55395508 168.26757812 C276.63559594 174.43298866 272.70838316 180.5926185 268.76977539 186.74511719 C267.39421474 188.89530767 266.02095987 191.0469752 264.65014648 193.20019531 C261.79466746 197.67885192 258.93084878 202.14089518 255.91796875 206.515625 C255.4794458 207.16144531 255.04092285 207.80726563 254.58911133 208.47265625 C253.47696329 210.10073542 252.34491537 211.71517453 251.2109375 213.328125 C249.71981933 215.86323627 249.71981933 215.86323627 250.5793457 218.12939453 C252.57930155 222.1705495 255.02545015 225.85011053 257.51953125 229.6015625 C258.36187569 230.87953201 258.36187569 230.87953201 259.22123718 232.18331909 C261.08027128 235.00036388 262.9461884 237.8127723 264.8125 240.625 C266.12516655 242.60991591 267.4376639 244.59494373 268.75 246.58007812 C278.18409551 260.83270711 287.724411 275.01244112 297.30508423 289.16680908 C307.08904032 303.62366257 316.73099764 318.16859635 326.3125 332.76025391 C335.86060748 347.29590998 345.53754775 361.73897661 355.287323 376.13998413 C367.97637249 394.88933252 380.44556779 413.78107555 392.86561584 432.70942688 C393.35348068 433.45282822 393.84134552 434.19622955 394.34399414 434.9621582 C394.79670685 435.65403229 395.24941956 436.34590637 395.71585083 437.05874634 C396.54609468 438.31382943 397.38744141 439.56166866 398.24191284 440.80038452 C401 444.8025354 401 444.8025354 401 447 C386.84895576 447.39828535 372.69878747 447.69631509 358.54327679 447.88080692 C351.96917001 447.96937971 345.398838 448.0893922 338.8269043 448.2824707 C332.47878596 448.46779705 326.13428573 448.5689454 319.78367043 448.61291313 C317.36672796 448.64422254 314.94997458 448.70537559 312.53458214 448.79741096 C294.09684289 449.47173181 294.09684289 449.47173181 288.9228344 445.34211922 C285.3985487 441.33516985 283.04905386 436.89311114 280.92075729 432.0275383 C279.6672503 429.26727406 278.05010753 426.80820926 276.35546875 424.30078125 C275.29880331 422.63845025 274.24281108 420.97569113 273.1875 419.3125 C271.99350786 417.43358214 270.79949689 415.55467623 269.60546875 413.67578125 C269.00911621 412.73686035 268.41276367 411.79793945 267.79833984 410.83056641 C264.8682623 406.21865776 261.93395422 401.60944299 259 397 C257.83331226 395.16668008 256.66664561 393.33334673 255.5 391.5 C254.9225 390.5925 254.345 389.685 253.75 388.75 C234.5 358.5 234.5 358.5 232.75048828 355.75073242 C231.58223612 353.91493088 230.41394176 352.0791562 229.24560547 350.2434082 C226.35285245 345.69805624 223.4608023 341.15226033 220.5703125 336.60546875 C217.04982781 331.06842966 213.52625387 325.53336679 210 320 C209.6514093 319.4529541 209.3028186 318.9059082 208.94366455 318.34228516 C206.72211918 314.85648277 204.49885874 311.37178242 202.27362061 307.88833618 C201.20323291 306.21213732 200.13407786 304.53515152 199.06494141 302.8581543 C198.41831543 301.84664307 197.77168945 300.83513184 197.10546875 299.79296875 C196.52949951 298.8908667 195.95353027 297.98876465 195.36010742 297.05932617 C194.16095116 295.09417174 194.16095116 295.09417174 193 294 C192.58339111 294.65258789 192.16678223 295.30517578 191.73754883 295.97753906 C184.69342058 307.0078345 177.64864375 318.03700609 170.5 329 C165.62636341 336.47448249 160.80355702 343.98029854 156 351.5 C149.53861022 361.6138816 143.02057265 371.68916895 136.46875 381.74462891 C134.20378589 385.22264394 131.94386497 388.70390081 129.6875 392.1875 C129.25179688 392.86006836 128.81609375 393.53263672 128.3671875 394.22558594 C125.64605767 398.43361885 122.9431503 402.65290908 120.25 406.87890625 C119.57880127 407.93118408 118.90760254 408.98346191 118.21606445 410.06762695 C116.92880182 412.0870599 115.64327432 414.10760078 114.36010742 416.12963867 C113.09196071 418.11891102 111.79754348 420.09164546 110.47927856 422.04806519 C108.54693012 425.00240787 106.95879734 428.03843138 105.38627625 431.19761658 C97.9418629 445.2364548 97.9418629 445.2364548 91.36833 448.17737961 C83.92615435 449.94423222 76.368408 449.41335085 68.7890625 449.05078125 C66.36539659 449.01154799 63.9415626 448.98168614 61.51766968 448.96073914 C55.17713898 448.88104001 48.84692518 448.6752908 42.51043701 448.44195557 C36.0292116 448.22601314 29.54629571 448.13098976 23.0625 448.02539062 C10.37063024 447.8010479 -2.31413337 447.44742248 -15 447 C-14.36454083 445.7155397 -13.72752822 444.43184784 -13.08985901 443.14848328 C-12.73528909 442.43354548 -12.38071917 441.71860769 -12.0154047 440.98200512 C-10.87957418 438.76493649 -9.6162267 436.70356629 -8.21484375 434.64453125 C-7.69446533 433.87302734 -7.17408691 433.10152344 -6.63793945 432.30664062 C-6.07679443 431.48357422 -5.51564941 430.66050781 -4.9375 429.8125 C-3.67853781 427.94478487 -2.42079241 426.07624914 -1.1640625 424.20703125 C-0.15520996 422.707771 -0.15520996 422.707771 0.87402344 421.17822266 C4.68626128 415.47912846 8.43527235 409.73870674 12.1875 404 C12.99744087 402.76210187 13.80741836 401.5242277 14.61743164 400.28637695 C16.26010672 397.77577631 17.90238117 395.26491417 19.54443359 392.75390625 C23.13201998 387.2684936 26.72492583 381.78656681 30.3175354 376.30444336 C32.29525137 373.2864448 34.27260709 370.26821023 36.25 367.25 C37.04166495 366.04166554 37.83333162 364.83333221 38.625 363.625 C39.016875 363.026875 39.40875 362.42875 39.8125 361.8125 C60 331 80.1875 300.1875 100.375 269.375 C100.96266144 268.47799377 100.96266144 268.47799377 101.56219482 267.56286621 C102.35475704 266.35323243 103.14744118 265.14367852 103.94024658 263.9342041 C105.90671336 260.9339071 107.87111669 257.93230102 109.83105469 254.92773438 C113.54288189 249.24238094 117.27548394 243.57377899 121.07592773 237.94714355 C122.87577128 235.27992283 124.66473697 232.60549381 126.45288086 229.93041992 C127.31090063 228.65348367 128.17427502 227.38012755 129.04321289 226.1105957 C130.24553141 224.35328901 131.42907766 222.58464322 132.609375 220.8125 C133.6298291 219.30623047 133.6298291 219.30623047 134.67089844 217.76953125 C136.22198132 215.11299576 136.22198132 215.11299576 135.83984375 212.35571289 C135.05605483 210.15723055 134.2444843 208.43117948 132.953125 206.49609375 C132.52725098 205.84858154 132.10137695 205.20106934 131.66259766 204.53393555 C131.19644043 203.84211182 130.7302832 203.15028809 130.25 202.4375 C129.24202716 200.91156423 128.23422149 199.38551803 127.2265625 197.859375 C126.43233887 196.66538086 126.43233887 196.66538086 125.62207031 195.44726562 C122.92637029 191.38018299 120.27887762 187.28193933 117.625 183.1875 C116.52635073 181.49719491 115.42738979 179.80709236 114.328125 178.1171875 C113.77962891 177.27381836 113.23113281 176.43044922 112.66601562 175.56152344 C112.11623047 174.7162207 111.56644531 173.87091797 111 173 C104.37597657 162.81546691 97.75574881 152.62861077 91.15917969 142.42626953 C85.45528423 133.6072329 79.72640404 124.80443013 74 116 C67.37597657 105.81546691 60.75574881 95.62861077 54.15917969 85.42626953 C48.45528423 76.6072329 42.72640404 67.80443013 37 59 C22.93401401 37.37334042 22.93401401 37.37334042 17.18774414 28.46582031 C14.61884848 24.48702132 12.03058986 20.521805 9.42578125 16.56640625 C8.82507812 15.65117187 8.224375 14.7359375 7.60546875 13.79296875 C6.42820948 12.00014908 5.24733071 10.20969991 4.0625 8.421875 C3.26779297 7.20951172 3.26779297 7.20951172 2.45703125 5.97265625 C1.7451062 4.89383179 1.7451062 4.89383179 1.01879883 3.79321289 C0 2 0 2 0 0 Z " fill="#000000" transform="translate(1886,3105)"/>
<path d="M0 0 C13.69942368 -0.23179185 27.39838034 -0.40942931 41.09936619 -0.51812172 C47.46156172 -0.57029216 53.82241496 -0.64104023 60.18383789 -0.75439453 C66.32421467 -0.86312412 72.46330139 -0.92285728 78.60456657 -0.94877243 C80.94629162 -0.96723737 83.28794669 -1.00329762 85.62912178 -1.05730057 C103.98529853 -1.46383987 103.98529853 -1.46383987 108.92556763 2.12565613 C110.77743935 4.71925757 111.88949499 7.02604909 113 10 C113.94623017 11.60134715 114.91675793 13.18884909 115.921875 14.75390625 C116.86744197 16.35508612 117.81007882 17.95799944 118.75 19.5625 C122.49023018 25.87058822 126.29702644 32.11325693 130.3125 38.25 C136.71181538 48.03554204 142.88017624 57.96242265 149.06054688 67.88720703 C152.20144297 72.92829782 155.35099071 77.96397481 158.5 83 C162.2647563 89.02154773 166.02811964 95.04394442 169.78515625 101.0703125 C178.11632886 114.4276765 186.52328837 127.73450957 195 141 C201.59657628 130.67031304 208.08028125 120.28505366 214.36083984 109.76000977 C218.16656052 103.38257427 222.00983048 97.02907839 225.875 90.6875 C226.46007324 89.7274707 227.04514648 88.76744141 227.64794922 87.77832031 C228.83772239 85.82655759 230.02766435 83.87489775 231.21777344 81.92333984 C234.14786239 77.1171912 237.07373957 72.30848026 240 67.5 C241.16664601 65.58332076 242.33331269 63.6666541 243.5 61.75 C244.36625 60.326875 244.36625 60.326875 245.25 58.875 C250.5 50.25 250.5 50.25 252.25195312 47.37182617 C253.41215073 45.4657641 254.57230735 43.55967709 255.73242188 41.65356445 C258.74772008 36.69943628 261.76384724 31.74581543 264.78125 26.79296875 C265.71517578 25.25962891 265.71517578 25.25962891 266.66796875 23.6953125 C267.84738861 21.75895154 269.0270564 19.82274156 270.20703125 17.88671875 C270.74714844 16.99984375 271.28726562 16.11296875 271.84375 15.19921875 C272.30974609 14.43440186 272.77574219 13.66958496 273.25585938 12.8815918 C274.99620781 10.1288725 274.99620781 10.1288725 276.11679268 7.57100582 C279.62669912 0.55859126 279.62669912 0.55859126 283.2400856 -0.91115665 C286.00895869 -1.23316102 288.62571837 -1.23855445 291.41162109 -1.13525391 C292.44637573 -1.13671417 293.48113037 -1.13817444 294.54724121 -1.13967896 C297.95812809 -1.13272667 301.36350915 -1.05503694 304.7734375 -0.9765625 C307.14137792 -0.95790556 309.509357 -0.94367364 311.87734985 -0.9336853 C318.102509 -0.89554808 324.3253255 -0.79735798 330.54956055 -0.68664551 C336.90381171 -0.58424916 343.25844242 -0.53865538 349.61328125 -0.48828125 C362.07654875 -0.38111287 374.5380794 -0.21049735 387 0 C385.77913668 3.11528437 384.54551497 5.9449023 382.7421875 8.765625 C382.29004883 9.47734863 381.83791016 10.18907227 381.37207031 10.92236328 C380.63102051 12.07454346 380.63102051 12.07454346 379.875 13.25 C379.08754395 14.48532471 379.08754395 14.48532471 378.28417969 15.74560547 C376.52695007 18.49975438 374.76355895 21.24990035 373 24 C371.73667832 25.97637023 370.47366464 27.95293736 369.2109375 29.9296875 C365.83283795 35.21517228 362.44934722 40.49718497 359.06445312 45.77832031 C355.70727076 51.01736697 352.3538232 56.2588026 349 61.5 C347.67318158 63.57291955 346.34635866 65.64583621 345.01953125 67.71875 C342.28659436 71.98883863 339.55498554 76.25977326 336.82421875 80.53125 C330.60079241 90.26403385 324.36990414 99.99114516 318.08081055 109.68164062 C313.74216147 116.37717675 309.46832851 123.11363175 305.19091797 129.84838867 C301.65245945 135.41553114 298.09229174 140.96745804 294.5 146.5 C289.80789354 153.72845019 285.17567693 160.9939645 280.55395508 168.26757812 C276.63559594 174.43298866 272.70838316 180.5926185 268.76977539 186.74511719 C267.39421474 188.89530767 266.02095987 191.0469752 264.65014648 193.20019531 C261.79466746 197.67885192 258.93084878 202.14089518 255.91796875 206.515625 C255.4794458 207.16144531 255.04092285 207.80726563 254.58911133 208.47265625 C253.47696329 210.10073542 252.34491537 211.71517453 251.2109375 213.328125 C249.71981933 215.86323627 249.71981933 215.86323627 250.5793457 218.12939453 C252.57930155 222.1705495 255.02545015 225.85011053 257.51953125 229.6015625 C258.36187569 230.87953201 258.36187569 230.87953201 259.22123718 232.18331909 C261.08027128 235.00036388 262.9461884 237.8127723 264.8125 240.625 C266.12516655 242.60991591 267.4376639 244.59494373 268.75 246.58007812 C278.18409551 260.83270711 287.724411 275.01244112 297.30508423 289.16680908 C307.08904032 303.62366257 316.73099764 318.16859635 326.3125 332.76025391 C335.86060748 347.29590998 345.53754775 361.73897661 355.287323 376.13998413 C367.97637249 394.88933252 380.44556779 413.78107555 392.86561584 432.70942688 C393.35348068 433.45282822 393.84134552 434.19622955 394.34399414 434.9621582 C394.79670685 435.65403229 395.24941956 436.34590637 395.71585083 437.05874634 C396.54609468 438.31382943 397.38744141 439.56166866 398.24191284 440.80038452 C401 444.8025354 401 444.8025354 401 447 C386.84895576 447.39828535 372.69878747 447.69631509 358.54327679 447.88080692 C351.96917001 447.96937971 345.398838 448.0893922 338.8269043 448.2824707 C332.47878596 448.46779705 326.13428573 448.5689454 319.78367043 448.61291313 C317.36672796 448.64422254 314.94997458 448.70537559 312.53458214 448.79741096 C294.09684289 449.47173181 294.09684289 449.47173181 288.9228344 445.34211922 C285.3985487 441.33516985 283.04905386 436.89311114 280.92075729 432.0275383 C279.6672503 429.26727406 278.05010753 426.80820926 276.35546875 424.30078125 C275.29880331 422.63845025 274.24281108 420.97569113 273.1875 419.3125 C271.99350786 417.43358214 270.79949689 415.55467623 269.60546875 413.67578125 C269.00911621 412.73686035 268.41276367 411.79793945 267.79833984 410.83056641 C264.8682623 406.21865776 261.93395422 401.60944299 259 397 C257.83331226 395.16668008 256.66664561 393.33334673 255.5 391.5 C254.9225 390.5925 254.345 389.685 253.75 388.75 C234.5 358.50000001 234.5 358.50000001 232.75048828 355.75073242 C231.58223612 353.91493088 230.41394176 352.0791562 229.24560547 350.2434082 C226.35285245 345.69805624 223.4608023 341.15226033 220.5703125 336.60546875 C217.04982781 331.06842966 213.52625387 325.53336679 210 320 C209.6514093 319.4529541 209.3028186 318.9059082 208.94366455 318.34228516 C206.72211918 314.85648277 204.49885874 311.37178242 202.27362061 307.88833618 C201.20323291 306.21213732 200.13407786 304.53515152 199.06494141 302.8581543 C198.41831543 301.84664307 197.77168945 300.83513184 197.10546875 299.79296875 C196.52949951 298.8908667 195.95353027 297.98876465 195.36010742 297.05932617 C194.16095116 295.09417174 194.16095116 295.09417174 193 294 C192.58339111 294.65258789 192.16678223 295.30517578 191.73754883 295.97753906 C184.69342058 307.0078345 177.64864375 318.03700609 170.5 329 C165.62636341 336.47448249 160.80355702 343.98029854 156 351.5 C149.53861022 361.6138816 143.02057265 371.68916895 136.46875 381.74462891 C134.20378589 385.22264394 131.94386497 388.70390081 129.6875 392.1875 C129.25179687 392.86006836 128.81609375 393.53263672 128.3671875 394.22558594 C125.64605767 398.43361885 122.9431503 402.65290908 120.25 406.87890625 C119.57880127 407.93118408 118.90760254 408.98346191 118.21606445 410.06762695 C116.92880182 412.0870599 115.64327432 414.10760078 114.36010742 416.12963867 C113.09204466 418.11877933 111.79792353 420.09151414 110.48013306 422.04806519 C108.54760529 425.00294475 106.95526281 428.03986169 105.37858582 431.19761658 C97.91656078 445.23642443 97.91656078 445.23642443 91.38526726 448.17737961 C84.01007813 449.94195578 76.52105326 449.41362362 69.0078125 449.05078125 C66.60656808 449.01154711 64.20515399 448.98168567 61.80368042 448.96073914 C55.52228722 448.8810461 49.25131092 448.67530507 42.97399902 448.44195557 C36.55311047 448.22599818 30.13051474 448.13098677 23.70703125 448.02539062 C11.13360912 447.80105925 -1.43263856 447.4474444 -14 447 C-13.30013568 443.07433129 -12.33335487 440.58635068 -10.0703125 437.28125 C-9.44987061 436.36448486 -8.82942871 435.44771973 -8.19018555 434.50317383 C-7.50867432 433.51212646 -6.82716309 432.5210791 -6.125 431.5 C-5.03375094 429.88875564 -3.94254441 428.27748149 -2.85313416 426.66499329 C-2.08631472 425.53019838 -1.31860637 424.39600369 -0.55006409 423.26237488 C3.8093058 416.82610479 8.06158525 410.32067919 12.3125 403.8125 C13.11431804 402.58652148 13.91623931 401.36061046 14.71826172 400.13476562 C16.33815843 397.65864712 17.95758059 395.18221929 19.57666016 392.70556641 C23.15228293 387.23691401 26.73410365 381.77232288 30.31552124 376.3074646 C32.2939407 373.28848 34.27194933 370.26922625 36.25 367.25 C37.0416647 366.04166538 37.83333137 364.83333205 38.625 363.625 C39.016875 363.026875 39.40875 362.42875 39.8125 361.8125 C60 331 80.1875 300.1875 100.375 269.375 C100.96266144 268.47799377 100.96266144 268.47799377 101.56219482 267.56286621 C102.35475704 266.35323243 103.14744118 265.14367852 103.94024658 263.9342041 C105.90671336 260.9339071 107.87111669 257.93230102 109.83105469 254.92773438 C113.54288189 249.24238094 117.27548394 243.57377899 121.07592773 237.94714355 C122.87577128 235.27992283 124.66473697 232.60549381 126.45288086 229.93041992 C127.31090063 228.65348367 128.17427502 227.38012755 129.04321289 226.1105957 C130.24553141 224.35328901 131.42907766 222.58464322 132.609375 220.8125 C133.6298291 219.30623047 133.6298291 219.30623047 134.67089844 217.76953125 C136.22198132 215.11299576 136.22198132 215.11299576 135.83984375 212.35571289 C135.05605483 210.15723055 134.2444843 208.43117948 132.953125 206.49609375 C132.52725098 205.84858154 132.10137695 205.20106934 131.66259766 204.53393555 C131.19644043 203.84211182 130.7302832 203.15028809 130.25 202.4375 C129.24202716 200.91156423 128.23422149 199.38551803 127.2265625 197.859375 C126.43233887 196.66538086 126.43233887 196.66538086 125.62207031 195.44726562 C122.92637029 191.38018299 120.27887762 187.28193933 117.625 183.1875 C116.52635073 181.49719491 115.42738979 179.80709236 114.328125 178.1171875 C113.77962891 177.27381836 113.23113281 176.43044922 112.66601562 175.56152344 C112.11623047 174.7162207 111.56644531 173.87091797 111 173 C104.37597657 162.81546691 97.75574881 152.62861077 91.15917969 142.42626953 C85.45528423 133.6072329 79.72640404 124.80443013 74 116 C67.37597657 105.81546691 60.75574881 95.62861077 54.15917969 85.42626953 C48.45528423 76.6072329 42.72640404 67.80443013 37 59 C22.93401401 37.37334042 22.93401401 37.37334042 17.18774414 28.46582031 C14.61884848 24.48702132 12.03058986 20.521805 9.42578125 16.56640625 C8.82507813 15.65117187 8.224375 14.7359375 7.60546875 13.79296875 C6.42820948 12.00014908 5.24733071 10.20969991 4.0625 8.421875 C3.26779297 7.20951172 3.26779297 7.20951172 2.45703125 5.97265625 C1.7451062 4.89383179 1.7451062 4.89383179 1.01879883 3.79321289 C0 2 0 2 0 0 Z " fill="#000000" transform="translate(226,3105)"/>
<path d="M0 0 C0.81080847 0.10997191 0.81080847 0.10997191 1.63799691 0.22216547 C17.97851468 2.42565158 34.3458975 4.31999834 50.7348001 6.12345648 C54.35703051 6.52257544 57.97896515 6.92436264 61.60093689 7.32582092 C67.84823564 8.01794348 74.09570249 8.70853055 80.34328461 9.39809036 C89.37911474 10.39545656 98.41459502 11.39596462 107.44998375 12.39732091 C122.12062723 14.02318761 136.79143524 15.64756393 151.46240234 17.27050781 C152.33682146 17.36723928 153.21124059 17.46397076 154.11215726 17.56363349 C163.89364069 18.64566463 173.67516316 19.72734236 183.45672607 20.80865479 C187.0194911 21.20250973 190.58225566 21.59636895 194.14501953 21.99023438 C195.02441837 22.08745166 195.9038172 22.18466894 196.80986449 22.28483219 C211.45695996 23.90413615 226.10377254 25.52598363 240.75036454 27.14983499 C249.77021908 28.14974457 258.7903131 29.14744114 267.81072685 30.14229356 C273.97430274 30.82222834 280.13761689 31.5045011 286.3007274 32.18864132 C289.85744329 32.58337557 293.41427242 32.97700868 296.97142601 33.36778069 C300.82092542 33.79069074 304.66985366 34.21864967 308.51873779 34.64712524 C310.21551434 34.83228838 310.21551434 34.83228838 311.9465692 35.02119219 C312.97292676 35.1362852 313.99928432 35.2513782 315.05674362 35.36995888 C315.94535229 35.46819911 316.83396097 35.56643934 317.74949718 35.66765654 C320 36 320 36 323 37 C323.72409938 64.38455042 324.17905818 91.75680853 324.30331039 119.15047765 C324.32605745 123.99144068 324.35315606 128.83238014 324.3795166 133.67332458 C324.42920897 142.94218446 324.47441301 152.21106061 324.51765215 161.47995263 C324.55244237 168.92553693 324.58906104 176.37111039 324.62667847 183.81668091 C324.96602133 251.21152533 325.14721704 318.60430523 325 386 C323.11439112 385.07318373 321.23064277 384.14258175 319.34765625 383.21044922 C318.29843994 382.69263885 317.24922363 382.17482849 316.16821289 381.6413269 C311.25410297 379.09551919 306.63656241 376.13928327 302 373.125 C301.03940674 372.50641113 300.07881348 371.88782227 299.08911133 371.25048828 C296.38804149 369.50743449 293.69287071 367.75568541 291 366 C290.06293213 365.39188477 290.06293213 365.39188477 289.10693359 364.77148438 C282.88294416 360.72503394 276.80964962 356.47389054 270.75 352.1875 C270.02425781 351.67429199 269.29851562 351.16108398 268.55078125 350.63232422 C267.82375 350.11814941 267.09671875 349.60397461 266.34765625 349.07421875 C265.62078613 348.56036621 264.89391602 348.04651367 264.14501953 347.51708984 C262.76246583 346.53926276 261.38057803 345.56049313 259.99951172 344.58056641 C252.34373828 339.16278259 244.57979769 334.07769272 236.5 329.3125 C202.71187804 309.37661775 170.51027538 285.71314164 141.51171875 259.265625 C140.17398012 258.05895563 138.8308337 256.85740362 137.45336914 255.69628906 C130.64637087 249.91332002 124.38445432 243.57052791 118.07348633 237.25878906 C116.07588048 235.26336586 114.07040647 233.27608944 112.06445312 231.2890625 C105.61626439 224.868475 99.43034749 218.43797795 93.80541992 211.27294922 C92.03819855 209.0480904 90.18116999 206.95797554 88.25 204.875 C72.79213648 187.63825536 59.6945883 167.9246153 48 148 C47.61247559 147.34209473 47.22495117 146.68418945 46.82568359 146.00634766 C44.12208045 141.38783877 41.52803265 136.71676017 39 132 C38.57750977 131.21238281 38.15501953 130.42476562 37.71972656 129.61328125 C19.27203398 94.84699428 7.51323537 57.21004948 1.125 18.4375 C0.94457153 17.35964233 0.94457153 17.35964233 0.76049805 16.26000977 C0.17356011 12.39331174 -0.05081678 8.65177976 -0.02783203 4.73852539 C-0.02381378 3.84815079 -0.01979553 2.95777618 -0.01565552 2.04042053 C-0.0104892 1.36708176 -0.00532288 0.69374298 0 0 Z " fill="#F4811E" transform="translate(823,1860)"/>
<path d="M0 0 C30.03 0 60.06 0 91 0 C91 120.78 91 241.56 91 366 C164.92 366 238.84 366 315 366 C315 391.41 315 416.82 315 443 C211.05 443 107.1 443 0 443 C0 296.81 0 150.62 0 0 Z " fill="#000000" transform="translate(1089,3109)"/>
<path d="M0 0 C0.33 0 0.66 0 1 0 C1.49377887 3.26878824 1.96691589 6.54029884 2.4375 9.8125 C2.57220703 10.70259766 2.70691406 11.59269531 2.84570312 12.50976562 C5.39254321 30.46188233 5.15985514 48.61743207 5.13037109 66.70703125 C5.12499995 70.62503917 5.13035358 74.54293299 5.13671875 78.4609375 C5.14628555 110.25646172 5.14628555 110.25646172 3.49316406 119.98168945 C2.92815911 123.43968756 2.73255534 126.83284931 2.5546875 130.33203125 C2.07519521 138.82831645 1.15384704 147.24254037 0.125 155.6875 C-0.05535535 157.18839316 -0.23569368 158.68928837 -0.41601562 160.19018555 C-2.41105379 176.69078575 -4.71394617 193.04951565 -7.9140625 209.36328125 C-8.88749047 214.35275972 -9.77928309 219.3540584 -10.65600586 224.36132812 C-17.63404881 264.1703031 -26.17811502 303.49295209 -35.75 342.75 C-35.982565 343.70394653 -36.21513 344.65789307 -36.45474243 345.64074707 C-39.99213564 360.12370814 -43.66578917 374.55255698 -47.8125 388.875 C-49.77668644 395.69839639 -51.71021974 402.52931722 -53.61206055 409.37036133 C-56.92856374 421.29317663 -60.35501501 433.17336359 -64 445 C-64.36182373 446.18021729 -64.36182373 446.18021729 -64.73095703 447.38427734 C-90.60704685 531.41768818 -125.73868837 612.11457777 -185.41835022 739.67483521 C-188.05518479 745.10414228 -190.65604077 750.55012133 -193.25 756 C-204.64138376 779.88640866 -216.34395225 803.62533679 -227.97836304 827.39395142 C-229.44057684 830.38128606 -230.90257156 833.36872783 -232.36450195 836.35620117 C-233.33674919 838.34293723 -234.30899853 840.32967226 -235.28125 842.31640625 C-235.76003098 843.29479965 -236.23881195 844.27319305 -236.73210144 845.28123474 C-239.05700851 850.03175041 -241.3828458 854.78180585 -243.7109375 859.53076172 C-253.99348463 880.50686894 -264.1536468 901.52983047 -274.04295349 922.69432068 C-276.41032468 927.75535023 -278.80366949 932.80363113 -281.20703125 937.84765625 C-290.12767804 956.58494667 -298.7554649 975.42870403 -307.10339355 994.42814636 C-309.25768165 999.3281162 -311.43775308 1004.21583455 -313.6328125 1009.09765625 C-340.29369583 1068.5166416 -366.01124671 1130.39076616 -382.5078125 1193.515625 C-383.46309009 1197.14927314 -384.53489426 1200.72824804 -385.68280029 1204.30570984 C-389.18773694 1215.23642739 -392.05244002 1226.3138598 -394.875 1237.4375 C-395.13701202 1238.46646393 -395.39902405 1239.49542786 -395.66897583 1240.55557251 C-402.60018951 1267.83705532 -408.28292639 1295.25036628 -413 1323 C-427.40498353 1322.36026873 -441.6841006 1320.67008352 -456 1319 C-455.53346426 1308.85249321 -453.27342766 1299.12602676 -451.0625 1289.25 C-450.86403473 1288.35628693 -450.66556946 1287.46257385 -450.46109009 1286.54177856 C-440.46123734 1241.59883786 -427.65526628 1197.58278438 -412.70196533 1154.04595947 C-412.03020367 1152.0880321 -411.36205864 1150.12890764 -410.69482422 1148.16943359 C-393.99470401 1099.32335998 -374.02149565 1051.4779555 -352.60546875 1004.52587891 C-351.18871248 1001.41444429 -349.78033268 998.29946866 -348.37617493 995.18234253 C-335.42085621 966.42309915 -321.91744669 937.92815748 -308.1640625 909.54296875 C-305.83717971 904.73883582 -303.53046938 899.92572935 -301.23876953 895.10473633 C-291.66990797 874.98447934 -281.79980139 855.00837694 -272 835 C-264.32864637 819.33562425 -256.65981013 803.67002428 -249 788 C-248.59567749 787.17308655 -248.19135498 786.3461731 -247.77478027 785.49420166 C-238.00912608 765.51918387 -228.39796078 745.47921831 -218.97444153 725.34046936 C-216.66618304 720.4110857 -214.3392625 715.49081446 -212.00390625 710.57421875 C-203.47522257 692.60190679 -195.25086321 674.51455027 -187.2293396 656.31051636 C-184.5639401 650.26541233 -181.87542191 644.23084898 -179.1796875 638.19921875 C-168.25643642 613.74644707 -157.53578258 589.21624011 -147.08483887 564.55780029 C-146.02103587 562.04959773 -144.95468461 559.54249307 -143.88769531 557.03564453 C-124.22906461 510.81219381 -105.30249411 464.16010178 -88 417 C-87.74101929 416.2955072 -87.48203857 415.5910144 -87.21520996 414.86517334 C-83.37104058 404.40349477 -79.59205131 393.9193083 -75.859375 383.4173584 C-75.27665946 381.77822263 -74.69330561 380.13931366 -74.109375 378.50061035 C-42.67760325 290.28845586 -14.87701579 199.01294503 0 0 Z " fill="#000000" transform="translate(1237,142)"/>
<path d="M0 0 C4.29354754 -0.04319069 8.5843631 -0.02872996 12.87792969 0.02539062 C11.31234049 5.71676783 8.4856496 10.36737519 5.50292969 15.40039062 C-16.68655698 53.68957889 -33.15264078 95.325983 -43.46875 138.36523438 C-44.13965667 141.09699784 -44.86263053 143.81048727 -45.59863281 146.52539062 C-64.747632 218.07603169 -66.98878908 296.80720217 -59.12207031 370.02539062 C-59.03014404 370.88841797 -58.93821777 371.75144531 -58.84350586 372.640625 C-56.79997031 391.6883734 -54.5895299 410.67200786 -50.64013672 429.43066406 C-49.81287041 433.57401293 -49.12771893 437.74083242 -48.41870117 441.90576172 C-45.827248 457.0390173 -42.49616689 471.91699517 -38.88720703 486.83251953 C-38.24776337 489.50088078 -37.62935747 492.17155007 -37.03222656 494.84960938 C-25.83209664 544.9394051 -7.29361098 594.95846241 12.87792969 642.02539062 C13.35311035 643.13414551 13.82829102 644.24290039 14.31787109 645.38525391 C29.51041095 680.61214135 46.54442026 715.15341084 66.15917969 748.12744141 C67.83894978 750.95966741 69.50169534 753.80116945 71.15917969 756.64648438 C81.60813776 774.54566021 92.58735274 792.0963807 104.49951172 809.06152344 C105.96336871 811.14711778 107.4187154 813.23851109 108.87402344 815.33007812 C114.98300399 824.07830943 121.2837727 832.63680596 127.87792969 841.02539062 C127.54792969 841.68539062 127.21792969 842.34539063 126.87792969 843.02539062 C110.86183936 826.28384306 110.86183936 826.28384306 103.87402344 817.48632812 C101.83481799 814.97223922 99.69530417 812.59406361 97.50292969 810.21289062 C92.50429445 804.71352854 87.96224499 798.89230683 83.42285156 793.01611328 C81.78854244 790.9102099 80.13929633 788.81666546 78.48730469 786.72460938 C70.60486345 776.7174502 63.10480245 766.51416387 55.87792969 756.02539062 C55.29930176 755.19023926 54.72067383 754.35508789 54.12451172 753.49462891 C39.40443967 732.23056311 25.69539963 710.4880468 12.87792969 688.02539062 C12.20600586 686.85145752 12.20600586 686.85145752 11.52050781 685.65380859 C-30.20831565 612.4981684 -60.72740709 532.51813097 -94.37207031 298.90039062 C-94.37236488 298.22894894 -94.37265945 297.55750725 -94.37296295 296.86571884 C-94.37917665 208.87861176 -77.43532975 122.76886325 -20.33837891 8.1237793 C-19.01180414 5.89843396 -19.01180414 5.89843396 -17.64941406 2.95117188 C-16.12207031 1.02539062 -16.12207031 1.02539062 -13.29394531 0.31835938 C-12.16472656 0.28355469 -11.03550781 0.24875 -9.87207031 0.21289062 C-8.0196875 0.14328125 -8.0196875 0.14328125 -6.12988281 0.07226562 C-4.08662498 0.04190518 -2.04333576 0.02444856 0 0 Z " fill="#010000" transform="translate(1338.1220703125,1918.974609375)"/>
<path d="M0 0 C3.96787637 3.96787637 5.29289014 10.05684728 7.25 15.25 C7.49843658 15.90747223 7.74687317 16.56494446 8.00283813 17.24234009 C12.03738414 27.97079042 15.52654071 38.71644981 18.23144531 49.86035156 C18.94650964 52.78148472 19.69206014 55.69365217 20.44412231 58.60543823 C24.43520129 74.14106958 27.68124744 89.65935054 29.8125 105.5625 C29.95221725 106.59118698 29.95221725 106.59118698 30.09475708 107.64065552 C30.69218178 112.11935403 31.21066288 116.60373765 31.68963623 121.09658813 C31.91455849 123.20070601 32.14608477 125.30412135 32.38165283 127.40707397 C34.80690865 149.38804421 35.41656906 171.11243525 35.26428223 193.21429443 C35.24510345 196.53541969 35.24116047 199.85649076 35.23743629 203.1776638 C35.21015014 225.32220289 35.04702257 247.41564375 32.59375 269.44921875 C32.14511184 273.57411314 31.7361114 277.70140103 31.34375 281.83203125 C27.22006419 325.02327002 20.5668321 367.66800858 11.97167969 410.18017578 C11.21171582 413.93985419 10.46550524 417.70202668 9.72607422 421.46578979 C6.31020899 438.82077953 2.419672 456.04564778 -1.6875 473.25 C-1.92183746 474.23390717 -2.15617493 475.21781433 -2.39761353 476.23153687 C-4.76968825 486.16381252 -7.21651962 496.04312857 -10.09057617 505.84326172 C-11.62652272 511.17474865 -12.95320244 516.55885179 -14.3125 521.9375 C-17.28568363 533.55700559 -20.64703687 545.01630307 -24.21533203 556.46484375 C-25.36379684 560.17537845 -26.46918685 563.89789679 -27.5625 567.625 C-27.8577356 568.62781006 -27.8577356 568.62781006 -28.15893555 569.65087891 C-29.27639383 573.46563457 -30.36306952 577.28790078 -31.4296875 581.1171875 C-34.13559106 590.79840721 -37.02923439 600.31656783 -40.5078125 609.75 C-41.68041302 612.99732276 -42.70532656 616.27301895 -43.703125 619.578125 C-63.08445845 683.16713996 -87.30355459 745.77727359 -113.75427246 806.73562622 C-114.9373868 809.47074635 -116.05702132 812.17106395 -117 815 C-125.95212623 815.06673083 -134.86867472 814.87711856 -143.8125 814.5 C-144.99392578 814.45230469 -146.17535156 814.40460937 -147.39257812 814.35546875 C-150.2618223 814.23930502 -153.13094746 814.12078869 -156 814 C-155.45818607 810.03935093 -154.65124535 806.79739519 -152.91015625 803.203125 C-152.46526855 802.26742676 -152.02038086 801.33172852 -151.56201172 800.36767578 C-151.06717285 799.33884277 -150.57233398 798.31000977 -150.0625 797.25 C-128.8848636 752.22724068 -110.41535364 705.79329039 -92.85235596 659.25817871 C-92.02509504 657.06648524 -91.19601166 654.87548817 -90.36669922 652.68457031 C-56.32495515 562.63505573 -26.83029705 470.66846595 21 198 C21.04236786 197.26608032 21.08473572 196.53216064 21.12838745 195.77600098 C21.91276349 181.88892807 22.20289752 168.03309837 22.1875 154.125 C22.18659363 152.59345779 22.18659363 152.59345779 22.18566895 151.03097534 C22.10703642 101.7499601 17.13571204 51.57905595 0.53979492 4.8684082 C0 3 0 3 0 0 Z " fill="#010000" transform="translate(1670,709)"/>
<path d="M0 0 C3.7505012 0.47529599 7.50030247 0.95590802 11.25 1.4375 C12.84521484 1.63956055 12.84521484 1.63956055 14.47265625 1.84570312 C15.49746094 1.97783203 16.52226563 2.10996094 17.578125 2.24609375 C18.52075195 2.36654053 19.46337891 2.4869873 20.43457031 2.61108398 C22.67713258 2.95105369 24.81369963 3.40394074 27 4 C27.1451001 4.80816162 27.2902002 5.61632324 27.43969727 6.44897461 C44.23491573 98.9960588 89.97029231 179.98516054 153.62011719 248.50683594 C155.0086492 250.00935926 156.38455493 251.52257581 157.7578125 253.0390625 C163.60244832 259.47198324 169.61507084 265.71801237 175.75 271.875 C176.79534912 272.92723755 176.79534912 272.92723755 177.86181641 274.00073242 C181.81036134 277.93757865 185.86239466 281.68837056 190.08447266 285.32958984 C193.06872297 287.93196566 195.93259283 290.65845939 198.8125 293.375 C203.78184553 298.0251341 208.85896172 302.44966938 214.17578125 306.703125 C216.81360539 308.84840937 219.37951075 311.05427596 221.94067383 313.28930664 C228.38244289 318.90638521 235.01973221 324.14140615 241.93432617 329.16723633 C246.90057687 332.80115373 246.90057687 332.80115373 248 335 C243.62657689 333.41118472 239.68340047 331.22995672 235.6875 328.875 C234.96328857 328.44832031 234.23907715 328.02164063 233.49291992 327.58203125 C200.82560634 308.04219482 169.64473938 284.92374794 141.51171875 259.265625 C140.17398012 258.05895563 138.8308337 256.85740362 137.45336914 255.69628906 C130.64637087 249.91332002 124.38445432 243.57052791 118.07348633 237.25878906 C116.07588048 235.26336586 114.07040647 233.27608944 112.06445312 231.2890625 C105.61626439 224.868475 99.43034749 218.43797795 93.80541992 211.27294922 C92.03819855 209.0480904 90.18116999 206.95797554 88.25 204.875 C72.79213648 187.63825536 59.6945883 167.9246153 48 148 C47.61247559 147.34209473 47.22495117 146.68418945 46.82568359 146.00634766 C44.12208045 141.38783877 41.52803265 136.71676017 39 132 C38.57750977 131.21238281 38.15501953 130.42476562 37.71972656 129.61328125 C19.27203398 94.84699428 7.51323537 57.21004948 1.125 18.4375 C0.94457153 17.35964233 0.94457153 17.35964233 0.76049805 16.26000977 C-0.06412047 10.82749195 -0.11478123 5.48753461 0 0 Z " fill="#010000" transform="translate(823,1860)"/>
<path d="M0 0 C-3.78864975 1.83961674 -7.58139775 3.67062072 -11.375 5.5 C-12.45523437 6.02464844 -13.53546875 6.54929687 -14.6484375 7.08984375 C-15.6796875 7.58613281 -16.7109375 8.08242187 -17.7734375 8.59375 C-19.20308838 9.28500977 -19.20308838 9.28500977 -20.66162109 9.99023438 C-23 11 -23 11 -25 11 C-24.01131149 8.44373967 -23.3709492 7.22167079 -20.98461914 5.7956543 C-20.17629639 5.47508057 -19.36797363 5.15450684 -18.53515625 4.82421875 C-17.65279297 4.47166016 -16.77042969 4.11910156 -15.86132812 3.75585938 C-14.93771484 3.40330078 -14.01410156 3.05074219 -13.0625 2.6875 C-12.14275391 2.31560547 -11.22300781 1.94371094 -10.27539062 1.56054688 C-3.39876761 -1.13292254 -3.39876761 -1.13292254 0 0 Z " fill="#0E0701" transform="translate(350,1154)"/>
<path d="M0 0 C2.72772048 2.72772048 3.7460131 5.97005745 5.125 9.5 C5.54072266 10.53447266 5.54072266 10.53447266 5.96484375 11.58984375 C8 16.73287408 8 16.73287408 8 19 C7.01 18.67 6.02 18.34 5 18 C3.95222369 15.52665762 3.09838539 13.17972108 2.3125 10.625 C2.08755859 9.93921875 1.86261719 9.2534375 1.63085938 8.546875 C0.68529527 5.59234644 0 3.1196449 0 0 Z " fill="#190D03" transform="translate(1670,709)"/>
<path d="M0 0 C4.95 0.99 4.95 0.99 10 2 C10.33 2.99 10.66 3.98 11 5 C9.35153231 4.55123384 7.70626545 4.09069512 6.0625 3.625 C5.14597656 3.36976562 4.22945312 3.11453125 3.28515625 2.8515625 C1 2 1 2 0 0 Z " fill="#130A02" transform="translate(2508,1188)"/>
</svg>
